<?xml version="1.0" encoding="UTF-8"?>
<!DOCTYPE svg PUBLIC "-//W3C//DTD SVG 1.1//EN" "http://www.w3.org/Graphics/SVG/1.1/DTD/svg11.dtd">
<svg xmlns="http://www.w3.org/2000/svg" version="1.1" width="1152px" height="648px" style="shape-rendering:geometricPrecision; text-rendering:geometricPrecision; image-rendering:optimizeQuality; fill-rule:evenodd; clip-rule:evenodd" xmlns:xlink="http://www.w3.org/1999/xlink">
<g><path style="opacity:1" fill="#0277d2" d="M -0.5,-0.5 C 26.1667,-0.5 52.8333,-0.5 79.5,-0.5C 80.5045,0.682751 81.3378,2.01608 82,3.5C 82.9808,28.9207 82.6474,54.254 81,79.5C 80.5,80 80,80.5 79.5,81C 53.5,81.6667 27.5,81.6667 1.5,81C 0.955796,80.2828 0.28913,79.7828 -0.5,79.5C -0.5,52.8333 -0.5,26.1667 -0.5,-0.5 Z"/></g>
<g><path style="opacity:1" fill="#fefefe" d="M 79.5,-0.5 C 436.833,-0.5 794.167,-0.5 1151.5,-0.5C 1151.5,215.5 1151.5,431.5 1151.5,647.5C 767.5,647.5 383.5,647.5 -0.5,647.5C -0.5,458.167 -0.5,268.833 -0.5,79.5C 0.28913,79.7828 0.955796,80.2828 1.5,81C 27.5,81.6667 53.5,81.6667 79.5,81C 80,80.5 80.5,80 81,79.5C 82.6474,54.254 82.9808,28.9207 82,3.5C 81.3378,2.01608 80.5045,0.682751 79.5,-0.5 Z"/></g>
<g><path style="opacity:1" fill="#30baee" d="M 60.5,12.5 C 59.0991,15.7036 58.0991,19.0369 57.5,22.5C 61.4659,21.8379 65.4659,21.5045 69.5,21.5C 64.0709,23.0121 58.4042,23.6787 52.5,23.5C 50.1667,23.5 47.8333,23.5 45.5,23.5C 45.698,19.9076 46.698,16.5742 48.5,13.5C 52.5,13.1667 56.5,12.8333 60.5,12.5 Z"/></g>
<g><path style="opacity:1" fill="#1b9ee3" d="M 48.5,13.5 C 46.698,16.5742 45.698,19.9076 45.5,23.5C 47.8333,23.5 50.1667,23.5 52.5,23.5C 46.0056,24.4442 39.3389,25.1109 32.5,25.5C 33.0906,22.0601 34.0906,18.7268 35.5,15.5C 39.775,14.4241 44.1083,13.7574 48.5,13.5 Z"/></g>
<g><path style="opacity:1" fill="#43d5f8" d="M 69.5,21.5 C 65.4659,21.5045 61.4659,21.8379 57.5,22.5C 58.0991,19.0369 59.0991,15.7036 60.5,12.5C 69.7306,9.06354 72.7306,12.0635 69.5,21.5 Z"/></g>
<g><path style="opacity:1" fill="#095fad" d="M 20.5,26.5 C 20.5,26.8333 20.5,27.1667 20.5,27.5C 18.2057,30.3695 16.8723,33.7029 16.5,37.5C 14.5853,37.7845 12.9187,37.4511 11.5,36.5C 10.5476,30.9252 10.2143,25.2586 10.5,19.5C 12.6663,19.4211 14.6663,18.7545 16.5,17.5C 18.5002,18.7365 20.3336,18.4032 22,16.5C 21.8452,19.8403 21.3452,23.1736 20.5,26.5 Z"/></g>
<g><path style="opacity:1" fill="#238dd2" d="M 38.5,27.5 C 46.5277,27.169 54.5277,27.5023 62.5,28.5C 57.3242,33.26 51.3242,36.76 44.5,39C 46.7885,39.8221 49.1218,40.4888 51.5,41C 47.0201,41.2926 46.6867,42.126 50.5,43.5C 51.3624,44.7658 52.0291,46.0992 52.5,47.5C 46.2734,44.2703 40.6068,40.2703 35.5,35.5C 35.5,34.5 35.5,33.5 35.5,32.5C 39.9038,32.1846 40.9038,30.5179 38.5,27.5 Z"/></g>
<g><path style="opacity:1" fill="#197ecc" d="M 20.5,27.5 C 20.5,27.1667 20.5,26.8333 20.5,26.5C 36.8367,26.3334 53.1701,26.5001 69.5,27C 70.4601,30.73 70.7935,34.5633 70.5,38.5C 64.7084,40.5635 59.0417,42.8969 53.5,45.5C 53.5,46.5 53.5,47.5 53.5,48.5C 53.7148,50.1788 53.0481,51.1788 51.5,51.5C 52.2341,50.2921 52.5674,48.9587 52.5,47.5C 52.0291,46.0992 51.3624,44.7658 50.5,43.5C 46.6867,42.126 47.0201,41.2926 51.5,41C 49.1218,40.4888 46.7885,39.8221 44.5,39C 51.3242,36.76 57.3242,33.26 62.5,28.5C 54.5277,27.5023 46.5277,27.169 38.5,27.5C 32.5,27.5 26.5,27.5 20.5,27.5 Z"/></g>
<g><path style="opacity:1" fill="#2c9cd7" d="M 20.5,27.5 C 26.5,27.5 32.5,27.5 38.5,27.5C 40.9038,30.5179 39.9038,32.1846 35.5,32.5C 35.5,33.5 35.5,34.5 35.5,35.5C 34.5,35.5 33.5,35.5 32.5,35.5C 32.5,44.5 32.5,53.5 32.5,62.5C 31.5184,59.0381 31.185,55.3714 31.5,51.5C 31.5,47.8333 31.5,44.1667 31.5,40.5C 31.6602,38.8008 31.4935,37.1341 31,35.5C 29.7978,37.6775 29.2978,40.0108 29.5,42.5C 22.7353,45.0486 16.402,48.382 10.5,52.5C 10.1786,46.9738 10.5119,41.6405 11.5,36.5C 12.9187,37.4511 14.5853,37.7845 16.5,37.5C 16.8723,33.7029 18.2057,30.3695 20.5,27.5 Z"/></g>
<g><path style="opacity:1" fill="#1e8dd4" d="M 31.5,40.5 C 30.6746,43.3718 29.8412,46.3718 29,49.5C 28.6667,48.8333 28.3333,48.1667 28,47.5C 27.5348,48.9308 26.7014,50.0975 25.5,51C 20.5741,54.1219 15.5741,56.9552 10.5,59.5C 10.5,57.1667 10.5,54.8333 10.5,52.5C 16.402,48.382 22.7353,45.0486 29.5,42.5C 29.2978,40.0108 29.7978,37.6775 31,35.5C 31.4935,37.1341 31.6602,38.8008 31.5,40.5 Z"/></g>
<g><path style="opacity:1" fill="#e3e4e6" d="M 35.5,35.5 C 40.6068,40.2703 46.2734,44.2703 52.5,47.5C 52.5674,48.9587 52.2341,50.2921 51.5,51.5C 45.1492,55.5265 38.8158,59.5265 32.5,63.5C 32.5,63.1667 32.5,62.8333 32.5,62.5C 32.5,53.5 32.5,44.5 32.5,35.5C 33.5,35.5 34.5,35.5 35.5,35.5 Z"/></g>
<g><path style="opacity:1" fill="#0f67be" d="M 70.5,51.5 C 60.6297,57.1961 50.6297,62.6961 40.5,68C 39.6195,68.7083 38.9528,69.5416 38.5,70.5C 35.1501,70.665 31.8168,70.4983 28.5,70C 31.0318,69.3811 33.3651,68.3811 35.5,67C 34.2341,66.6905 33.0674,66.1905 32,65.5C 31.3083,64.5632 31.475,63.8966 32.5,63.5C 38.8158,59.5265 45.1492,55.5265 51.5,51.5C 53.0481,51.1788 53.7148,50.1788 53.5,48.5C 59.3919,47.2531 64.8919,44.9197 70,41.5C 70.4983,44.8168 70.665,48.1501 70.5,51.5 Z"/></g>
<g><path style="opacity:1" fill="#1880cd" d="M 31.5,40.5 C 31.5,44.1667 31.5,47.8333 31.5,51.5C 30.5309,53.663 29.6976,55.9963 29,58.5C 28.6667,57.8333 28.3333,57.1667 28,56.5C 22.056,60.1112 16.3893,64.1112 11,68.5C 10.502,65.5184 10.3354,62.5184 10.5,59.5C 15.5741,56.9552 20.5741,54.1219 25.5,51C 26.7014,50.0975 27.5348,48.9308 28,47.5C 28.3333,48.1667 28.6667,48.8333 29,49.5C 29.8412,46.3718 30.6746,43.3718 31.5,40.5 Z"/></g>
<g><path style="opacity:1" fill="#065bbc" d="M 70.5,51.5 C 70.5,57.8333 70.5,64.1667 70.5,70.5C 59.8333,70.5 49.1667,70.5 38.5,70.5C 38.9528,69.5416 39.6195,68.7083 40.5,68C 50.6297,62.6961 60.6297,57.1961 70.5,51.5 Z"/></g>
</svg>
