<?xml version="1.0" encoding="utf-8"?>
<!DOCTYPE svg PUBLIC "-//W3C//DTD SVG 1.0//EN" "http://www.w3.org/TR/2001/REC-SVG-20010904/DTD/svg10.dtd">
<svg version="1.0" xmlns="http://www.w3.org/2000/svg" width="1152px" height="648px" viewBox="0 0 1152 648" preserveAspectRatio="xMidYMid meet">
 <g fill="#ffffff">
  <path d="M0 363.75 l0 -284.25 40.25 0 40.25 0 0 -39.75 0 -39.75 535.75 0 535.75 0 0 324 0 324 -576 0 -576 0 0 -284.25z"/>
  <path d="M48 22.30 c0 -3.30 0.80 -4.30 3.55 -4.30 l1.95 0 0 2.20 c0 2.95 -1.45 4.80 -3.80 4.80 l-1.70 0 0 -2.70z"/>
 </g>
 <g fill="#edf1f4">
  <path d="M0 80 c0 -0.80 0.35 -1 1.75 -1 1.40 0 1.75 0.20 1.75 1 0 0.80 -0.35 1 -1.75 1 -1.40 0 -1.75 -0.20 -1.75 -1z"/>
  <path d="M78.50 80 c0 -0.55 0.35 -1 0.75 -1 0.40 0 0.75 -0.35 0.75 -0.75 0 -0.40 0.45 -0.75 1 -0.75 0.80 0 1 0.35 1 1.75 0 1.65 -0.10 1.75 -1.75 1.75 -1.40 0 -1.75 -0.20 -1.75 -1z"/>
  <path d="M48.60 27.35 c-0.90 -0.95 -1.10 -1.75 -1.10 -4.35 0 -2.90 0.15 -3.35 1.40 -4.40 1.15 -1.05 1.75 -1.15 4.30 -1 3.70 0.30 4.30 1 4.30 5.25 0 2.70 -0.20 3.40 -1.25 4.40 -1.70 1.75 -6.05 1.80 -7.65 0.10z m3.40 -7.15 c0 -0.40 -0.20 -0.70 -0.45 -0.70 -0.95 0 -2.05 1.60 -2.05 2.90 l0.05 1.35 1.20 -1.40 c0.70 -0.75 1.25 -1.75 1.25 -2.15z"/>
  <path d="M80 1.25 c0 -0.90 0.25 -1.25 1 -1.25 0.75 0 1 0.35 1 1.25 0 0.90 -0.25 1.25 -1 1.25 -0.75 0 -1 -0.35 -1 -1.25z"/>
 </g>
 <g fill="#d1dfeb">
  <path d="M0 78.90 c0 -2.30 1.05 -2.55 2.80 -0.60 1.80 1.90 1.55 2.65 -0.80 2.55 -1.95 -0.05 -2 -0.10 -2 -1.95z"/>
  <path d="M79 79.85 c0.05 -1.40 1.15 -2.85 2.20 -2.85 0.65 0 0.80 0.40 0.65 1.80 -0.15 1.55 -0.40 1.85 -1.50 2 -1.10 0.10 -1.35 -0.05 -1.35 -0.95z"/>
  <path d="M48 27.15 c-0.95 -1.20 -1.05 -1.90 -0.90 -4.60 0.25 -4.20 1.20 -5.05 5.70 -5.05 2.40 0 3.20 0.15 3.20 0.70 0 0.35 0.45 0.80 1 0.95 0.90 0.25 1 0.70 1 3.80 0 4.80 -0.70 5.55 -5.45 5.55 -3.20 0 -3.55 -0.10 -4.55 -1.35z m6.75 -1.40 c1.40 -1.35 1.70 -4 0.65 -5.40 -0.35 -0.45 -1.35 -0.95 -2.15 -1.15 -3.55 -0.65 -5.70 3.90 -3.15 6.65 1.40 1.50 3.15 1.45 4.65 -0.10z"/>
  <path d="M0 1.25 c0 -0.90 0.25 -1.25 1 -1.25 0.75 0 1 0.35 1 1.25 0 0.90 -0.25 1.25 -1 1.25 -0.75 0 -1 -0.35 -1 -1.25z"/>
 </g>
 <g fill="#b3c4d9">
  <path d="M1.15 79.65 c-1.25 -1.40 -1.25 -1.40 -0.15 -1.55 1.70 -0.25 2.50 0.25 2.50 1.65 0 1.60 -0.75 1.60 -2.35 -0.10z"/>
  <path d="M78 80.05 c0 -0.55 0.45 -1.05 1.15 -1.25 1.85 -0.50 2.30 -0.35 2.20 0.65 0 0.55 -0.20 0.90 -0.40 0.75 -0.20 -0.10 -0.50 0 -0.70 0.30 -0.55 0.90 -2.25 0.55 -2.25 -0.45z"/>
  <path d="M49.15 28.50 c-1.30 -0.55 -1.95 -1.65 -2.40 -4.10 -0.50 -2.60 0.10 -4.90 1.30 -4.90 0.60 0 0.95 -0.35 0.95 -1 0 -2.15 6.45 -1.95 8.40 0.25 0.90 1.05 1.10 1.90 1.10 4.40 -0.05 3.25 -0.50 4.30 -2.35 5.25 -1.25 0.70 -5.40 0.75 -7 0.10z m6.35 -2.50 c2.35 -2.35 0.55 -7 -2.80 -7 -3.45 0 -5.35 3.90 -3.20 6.65 1.35 1.70 4.45 1.90 6 0.35z"/>
  <path d="M79.80 2.20 c-0.55 -1.40 -0.30 -2.20 0.65 -2.20 0.95 0 1.55 0.90 1.55 2.30 0 0.95 -1.80 0.90 -2.20 -0.10z"/>
  <path d="M0 2.05 c0 -1.15 0.70 -2.05 1.55 -2.05 0.70 0 0.95 0.35 0.95 1.25 0 1 -0.25 1.25 -1.25 1.25 -0.70 0 -1.25 -0.20 -1.25 -0.45z"/>
 </g>
 <g fill="#45d7f8">
  <path d="M14.90 64.65 c-0.95 -1.15 -1.90 -3.90 -1.90 -5.60 0 -3.95 0.75 -4.95 11.40 -15.70 5.70 -5.75 10.95 -10.75 11.70 -11.15 0.80 -0.40 2.80 -0.70 4.75 -0.70 4.40 0 5.65 0.80 5.65 3.55 0 1.15 -0.25 1.95 -0.60 1.95 -0.30 0 -5.60 5.05 -11.75 11.25 -6.15 6.20 -11.30 11.25 -11.45 11.25 -0.15 0 -1.05 0.75 -1.95 1.70 -1.15 1.05 -1.75 2.10 -1.75 3 0 1.15 -0.20 1.30 -1.65 1.30 -1 0 -2 -0.35 -2.45 -0.85z"/>
 </g>
 <g fill="#89a5ca">
  <path d="M78.50 79.85 c0 -0.65 0.25 -1.40 0.60 -1.75 0.75 -0.75 2.90 -0.80 2.90 -0.10 0 0.30 -0.55 1.10 -1.25 1.75 -1.50 1.55 -2.25 1.60 -2.25 0.10z"/>
  <path d="M50.15 29.15 c-0.65 -0.10 -1.15 -0.45 -1.15 -0.70 0 -0.25 -0.30 -0.45 -0.65 -0.45 -1.05 0 -1.85 -2.30 -1.85 -5.30 0 -2.40 0.20 -3 1.45 -4.25 1.35 -1.30 1.80 -1.45 4.80 -1.45 3 0 3.45 0.15 4.80 1.45 1.30 1.30 1.45 1.80 1.45 4.50 0 2.60 -0.20 3.20 -1.40 4.55 -1.15 1.20 -1.90 1.55 -3.90 1.70 -1.35 0.15 -2.95 0.10 -3.55 -0.05z m4.50 -2.25 c1.65 -0.85 2.30 -1.95 2.35 -3.75 0 -3.90 -4.55 -5.80 -7.35 -3.05 -3.50 3.50 0.65 9.15 5 6.80z"/>
  <path d="M0 2.20 c0 -0.40 0.30 -1.10 0.70 -1.50 0.95 -0.95 2.30 -0.90 2.30 0.10 0 1 -1.20 2.20 -2.20 2.20 -0.45 0 -0.80 -0.35 -0.80 -0.80z"/>
  <path d="M79.35 2.15 c-0.75 -0.70 -0.35 -2.15 0.65 -2.15 0.80 0 2 1.30 2 2.20 0 0.40 -2.25 0.35 -2.65 -0.05z"/>
 </g>
 <g fill="#39c3ef">
  <path d="M17.80 67 c-3.15 -0.95 -4.80 -3.80 -4.80 -8.20 0 -2.75 0.75 -5.30 1.60 -5.30 0.20 0 0.40 -0.30 0.40 -0.65 0 -0.35 1.65 -2.30 3.70 -4.25 3.05 -3 3.95 -3.60 5.35 -3.60 1.65 0 1.65 0 -3.40 5.15 -5.55 5.65 -6.50 7.45 -5.50 10.60 0.25 0.95 0.95 2.10 1.45 2.60 0.85 0.75 0.90 0.75 0.60 -0.65 -0.25 -1.25 -0.05 -1.60 1.05 -2.20 0.75 -0.40 1.55 -1.10 1.80 -1.60 0.25 -0.50 0.70 -0.90 0.95 -0.90 0.25 0 5.50 -5.05 11.60 -11.20 6.15 -6.15 11.50 -11.30 11.90 -11.45 0.60 -0.25 0.50 -0.50 -0.45 -1.30 -1.50 -1.35 -4.75 -1.40 -6.90 -0.05 l-1.65 1 0 -1.45 c0 -1.20 0.30 -1.55 1.55 -2 4.30 -1.50 9.30 -0.05 11.85 3.40 2.05 2.80 1.60 4.05 -3.35 8.95 -2.45 2.45 -4.80 4.60 -5.25 4.75 -0.45 0.20 -0.80 0.65 -0.80 1 0 0.80 -1.45 2.25 -3.10 3.05 -0.55 0.30 -1.30 1 -1.60 1.50 -0.80 1.40 -5.70 6.30 -6.30 6.30 -0.25 0 -0.50 0.35 -0.50 0.75 0 0.40 -0.35 0.75 -0.75 0.75 -0.40 0 -0.75 0.30 -0.75 0.65 0 0.35 -0.65 1.30 -1.50 2.10 -0.80 0.80 -1.50 1.75 -1.50 2.10 0 0.75 -3.35 0.85 -5.70 0.15z"/>
  <path d="M27 41.95 c0 -1.40 0.45 -2.15 2.45 -4.15 2 -2 2.65 -2.35 4 -2.20 l1.60 0.15 -4.05 4 -4 4 0 -1.80z"/>
 </g>
 <g fill="#45aae1">
  <path d="M17.65 67.45 c-1.30 -0.40 -1.65 -0.75 -1.65 -1.70 0 -1 -0.25 -1.25 -1.20 -1.25 -1.25 0 -1.80 -1.05 -1.80 -3.60 0 -2.05 1.15 -1.70 2.25 0.70 1.10 2.35 2.75 3.65 5.15 4.15 1.25 0.25 1.60 0.15 1.60 -0.45 0 -0.45 0.25 -0.80 0.50 -0.80 0.30 0 1.65 -1 2.95 -2.25 1.30 -1.25 2.75 -2.25 3.25 -2.25 0.45 0 0.80 -0.40 0.80 -0.90 0 -0.45 1.85 -2.70 4.15 -5 3.15 -3.10 4.45 -4.10 5.50 -4.10 1.15 0 1.35 -0.20 1.35 -1.40 0 -2 5 -6.80 7.90 -7.60 1.15 -0.30 2.10 -0.75 2.10 -1 0 -0.30 0.75 -0.50 1.65 -0.50 2.10 0 3.35 1.30 3.35 3.40 0 1.55 -0.05 1.60 -2.25 1.60 -2.85 0 -4.40 0.80 -7.25 3.70 -1.60 1.65 -2.60 2.30 -3.60 2.30 -1.20 0 -1.40 0.20 -1.40 1.40 0 1.05 -0.95 2.30 -4.15 5.50 -2.25 2.25 -4.50 4.10 -5 4.10 -0.50 0 -0.85 0.40 -0.85 0.90 0 1.30 -3.50 4.55 -5.55 5.10 -2.05 0.60 -5.60 0.60 -7.80 -0.05z"/>
  <path d="M64.50 60.65 c0 -0.45 -1.35 -2.80 -3 -5.20 -2.05 -3 -3 -4.85 -3 -5.90 0 -1.45 0.15 -1.55 1.70 -1.55 1.40 0 2.15 0.50 4.60 3 3.45 3.60 3.60 3.90 3.65 7.65 l0.05 2.85 -2 0 c-1.55 0 -2 -0.20 -2 -0.85z"/>
  <path d="M13 57.05 c0 -2.70 0.80 -4.05 2.45 -4.05 l1.50 0 -1.35 2.70 c-1.50 3.05 -2.60 3.60 -2.60 1.35z"/>
  <path d="M46.85 35.85 c-0.40 -0.65 -1.80 -1.70 -3.05 -2.40 -1.25 -0.65 -2.30 -1.50 -2.30 -1.80 0 -0.85 3.20 -0.85 4.10 -0.05 0.40 0.35 1.15 0.90 1.65 1.20 0.65 0.35 1.05 1.20 1.15 2.40 0.20 2.05 -0.45 2.35 -1.55 0.65z"/>
  <path d="M35 33.85 c0 -1.50 0.20 -1.85 1 -1.85 0.55 0 1 -0.20 1 -0.50 0 -0.25 0.80 -0.50 1.75 -0.50 2.25 0 2.35 1.20 0.15 1.95 -0.90 0.30 -2.10 1.05 -2.75 1.65 l-1.15 1.05 0 -1.80z"/>
 </g>
 <g fill="#2cb3e9">
  <path d="M18.65 67.55 c-2.45 -0.65 -4.15 -1.95 -4.95 -3.80 -0.95 -2.30 -0.90 -4.75 0.05 -4.75 0.40 0 0.75 0.35 0.75 0.75 0 1.25 0.05 1.45 0.60 2.15 0.30 0.30 0.40 0.60 0.25 0.60 -0.15 0 0.30 0.65 1.05 1.40 0.75 0.75 1.50 1.30 1.75 1.20 0.20 -0.10 0.35 0.05 0.35 0.30 0 0.30 0.45 0.40 1 0.25 0.55 -0.15 1 -0.05 1 0.25 0 0.25 0.60 0.45 1.40 0.45 0.75 0 1.05 -0.10 0.75 -0.20 -1 -0.35 -0.75 -1.40 0.65 -2.70 0.70 -0.65 1.50 -1.70 1.75 -2.35 0.25 -0.65 0.65 -1 0.95 -0.85 0.25 0.15 0.50 -0.05 0.50 -0.45 0 -0.45 0.25 -0.80 0.50 -0.80 0.60 0 5.50 -4.90 6.30 -6.30 0.30 -0.50 1.05 -1.20 1.60 -1.50 1.65 -0.80 3.10 -2.25 3.10 -3.05 0 -0.35 0.35 -0.80 0.80 -1 0.45 -0.15 2.80 -2.30 5.30 -4.75 3.80 -3.80 4.35 -4.60 3.85 -5.25 -0.35 -0.40 -0.90 -1.25 -1.20 -1.85 -0.35 -0.55 -0.85 -1 -1.20 -0.90 -0.30 0.05 -0.70 -0.25 -0.85 -0.65 -0.15 -0.40 -0.50 -0.60 -0.75 -0.45 -0.25 0.15 -0.45 0.05 -0.45 -0.20 0 -0.65 -4.55 -0.55 -5.65 0.10 -0.50 0.30 -1.95 1.55 -3.25 2.80 l-2.35 2.25 -0.15 -1.45 c-0.15 -1 0.20 -1.80 1.20 -2.85 0.75 -0.80 1.65 -1.45 2 -1.45 0.35 0 0.70 -0.25 0.80 -0.60 0.15 -0.40 1.60 -0.70 4 -0.80 4.25 -0.25 6.90 0.70 6.90 2.40 0 0.65 0.35 1 0.95 1 1.45 0 6.05 5.15 6.05 6.80 0 1.35 0 1.35 -1.10 0.40 -0.60 -0.50 -0.90 -0.70 -0.75 -0.40 0.20 0.40 -0.50 0.80 -2 1.15 -1.75 0.45 -3 1.30 -5.10 3.45 -2.55 2.60 -2.60 2.65 -0.30 0.55 3.25 -3 4.15 -3.45 7.10 -3.40 l2.40 0 -2.65 0.90 c-2.35 0.80 -3.85 2.10 -13.25 11.55 -5.80 5.85 -11.05 10.95 -11.60 11.30 -1.30 0.85 -6 1.30 -8.10 0.75z m9.10 -4.05 c1.05 -1.10 1.85 -2 1.70 -2 -0.15 0 -1.15 0.90 -2.20 2 -1.05 1.10 -1.85 2 -1.70 2 0.15 0 1.15 -0.90 2.20 -2z m7.75 -7.75 c2.35 -2.35 4.10 -4.25 4 -4.25 -0.15 0 -2.15 1.90 -4.50 4.25 -2.35 2.35 -4.10 4.25 -4 4.25 0.15 0 2.15 -1.90 4.50 -4.25z"/>
  <path d="M13.50 55.75 c0 -0.95 0.25 -1.75 0.50 -1.75 0.30 0 0.50 -0.35 0.50 -0.75 0 -0.50 0.50 -0.75 1.55 -0.75 1.45 0 1.50 0.10 0.90 0.90 -0.40 0.45 -0.90 1 -1.20 1.20 -0.25 0.20 -0.50 0.55 -0.55 0.75 -0.10 0.90 -0.85 2.15 -1.25 2.15 -0.25 0 -0.45 -0.80 -0.45 -1.75z"/>
  <path d="M21.50 47.20 c0.05 -1.05 0.75 -2.15 2.70 -4.10 2.15 -2.25 2.85 -2.65 4.10 -2.50 l1.45 0.15 -3.25 3.30 c-1.80 1.80 -3.65 3.55 -4.10 3.90 -0.80 0.60 -0.90 0.50 -0.90 -0.75z"/>
 </g>
 <g fill="#2d99da">
  <path d="M17.40 67.65 c-0.50 -0.10 -0.90 -0.40 -0.90 -0.65 0 -0.20 -0.45 -0.50 -1 -0.65 -0.70 -0.15 -1 -0.70 -1 -1.55 0 -0.75 -0.30 -1.30 -0.70 -1.30 -1.15 0 -1.70 -3.90 -1 -7.45 0.25 -1.20 0.60 -1.55 1.50 -1.55 1.05 0 1.10 0.10 0.60 1.55 -0.30 0.85 -0.40 2.65 -0.30 4 0.45 4.25 4.25 6.95 8.80 6.15 1.55 -0.25 3.50 -1.95 12.85 -11.20 6.05 -6 11.50 -11.15 12.10 -11.45 0.60 -0.30 2.15 -0.55 3.45 -0.55 l2.35 0 -4.20 -4.35 c-2.25 -2.45 -4.65 -4.75 -5.30 -5.15 -1.60 -1.05 -1.45 -1.50 0.60 -1.50 1.40 0 1.75 0.20 1.75 1 0 0.65 0.35 1 0.90 1 0.50 0 2.55 1.65 4.50 3.70 2.90 2.95 3.60 4 3.60 5.25 0 1.35 0.20 1.55 1.30 1.55 2 0 10.55 8.55 11.25 11.25 1.20 4.45 -0.45 9.35 -3.20 9.65 -0.75 0.10 -1.35 0.45 -1.35 0.80 0 0.95 -2.30 1.30 -8.30 1.30 l-5.20 0 0 -1.70 0 -1.65 3.85 -0.35 c2.10 -0.15 4.80 -0.30 6 -0.30 1.15 0 2.15 -0.20 2.15 -0.50 0 -0.25 -0.20 -0.50 -0.40 -0.50 -0.50 0 -4.60 -6.10 -4.60 -6.80 0 -0.75 -2.60 -5.90 -3.15 -6.25 -0.25 -0.20 -0.40 -1.25 -0.25 -2.40 l0.20 -2.05 -2.25 0 -2.25 0 -11 10.95 c-6.10 6 -11.55 11.20 -12.15 11.50 -1.05 0.55 -7.45 0.70 -9.25 0.20z m49.45 -9.70 c-0.20 -1.45 -0.85 -2.65 -2.45 -4.35 -4.10 -4.50 -4.65 -4.40 -1.50 0.25 1.70 2.45 3.10 4.85 3.10 5.30 0 0.50 0.25 0.85 0.55 0.85 0.40 0 0.50 -0.70 0.30 -2.05z"/>
  <path d="M20 48.25 c0 -1.70 0.05 -1.75 1.85 -1.75 l1.85 0 -1.70 1.75 c-0.95 0.95 -1.75 1.75 -1.85 1.75 -0.10 0 -0.15 -0.80 -0.15 -1.75z"/>
  <path d="M32 36.30 c0 -1.25 0.20 -1.80 0.75 -1.80 0.40 0 0.75 -0.35 0.75 -0.75 0 -0.40 0.45 -0.75 1 -0.75 0.55 0 1 -0.30 1 -0.70 0 -0.85 1.10 -1.30 3.05 -1.30 1.85 0 1.95 1.25 0.15 1.70 -0.70 0.20 -2.50 1.50 -4 2.90 l-2.70 2.55 0 -1.85z"/>
  <path d="M19.50 14.25 c0 -1.75 0 -1.75 2.25 -1.75 2.25 0 2.25 0 2.25 1.75 0 1.75 0 1.75 -2.25 1.75 -2.25 0 -2.25 0 -2.25 -1.75z"/>
 </g>
 <g fill="#617db3">
  <path d="M1.10 79.35 c-1.45 -1.55 -1.40 -2.35 0.15 -2.35 1.10 0 1.25 0.20 1.25 1.75 0 0.95 -0.05 1.75 -0.15 1.75 -0.10 0 -0.65 -0.50 -1.25 -1.15z"/>
  <path d="M80 78.35 c0 -1.50 0.20 -1.85 1 -1.85 0.65 0 1 0.35 1 0.90 0 0.55 -0.45 1.35 -1 1.85 -1 0.90 -1 0.85 -1 -0.90z"/>
  <path d="M67 56.95 c0 -1.20 -8.50 -10.25 -10.10 -10.75 -0.50 -0.15 -0.90 -0.70 -0.90 -1.25 0 -0.75 0.35 -0.95 1.65 -0.95 1.45 0 2.30 0.65 6.50 4.95 4.55 4.60 4.85 5.05 4.85 7 0 1.70 -0.15 2.05 -1 2.05 -0.70 0 -1 -0.35 -1 -1.05z"/>
  <path d="M13 55.45 c0 -2.45 0.80 -3.45 2.75 -3.45 0.95 0 1.75 0.15 1.75 0.30 0 0.20 -0.65 1.10 -1.50 2.05 -0.80 0.90 -1.50 1.90 -1.50 2.15 0 0.30 -0.35 0.50 -0.75 0.50 -0.50 0 -0.75 -0.50 -0.75 -1.55z"/>
  <path d="M49.50 29.15 c-0.40 -0.15 -1.35 -0.95 -2.10 -1.75 -1.10 -1.15 -1.40 -1.95 -1.40 -3.70 0 -1.85 0.15 -2.20 1 -2.20 0.75 0 1 0.35 1 1.25 0 4.50 5.15 6.60 8.15 3.25 1.55 -1.70 1.75 -3.70 0.55 -5.40 -0.75 -1.05 -0.70 -1.10 0.75 -1.10 1.80 0 2.30 1.25 1.90 4.85 -0.35 3.45 -2 4.80 -5.95 5 -1.75 0.05 -3.50 0 -3.90 -0.20z"/>
  <path d="M0 2.60 c0 -1.05 1.45 -2.60 2.40 -2.60 0.80 0 0.75 2.15 0 2.90 -0.95 0.95 -2.40 0.75 -2.40 -0.30z"/>
 </g>
 <g fill="#3f88c3">
  <path d="M18.65 68.15 c-0.65 -0.10 -1.15 -0.45 -1.15 -0.70 0 -0.25 -0.45 -0.45 -1 -0.45 -0.55 0 -1 -0.35 -1 -0.75 0 -0.40 -0.35 -0.75 -0.80 -0.75 -1.90 0 -3 -7.75 -1.50 -11.15 0.75 -1.70 21.25 -22.35 22.20 -22.35 0.35 0 0.60 -0.20 0.60 -0.45 0 -0.70 5.05 -1.20 7.45 -0.80 1.15 0.20 2.40 0.65 2.75 1.05 0.40 0.40 0.95 0.70 1.20 0.70 0.95 0 2.10 1.90 2.10 3.50 l0 1.70 -2.10 -2.05 c-1.20 -1.10 -2.65 -2.30 -3.25 -2.60 -1.75 -0.90 -5.85 -0.70 -7.20 0.40 -0.65 0.50 -5.55 5.35 -10.90 10.70 -5.35 5.40 -9.90 9.70 -10.10 9.55 -0.20 -0.10 -0.55 0.05 -0.75 0.35 -0.25 0.40 -0.10 0.50 0.35 0.25 0.50 -0.30 0.50 -0.20 -0.05 0.30 -0.80 0.70 -0.80 0.75 -1.25 3.75 -0.40 2.50 1.35 5.95 3.75 7.25 1.80 0.95 5.70 1.05 7.65 0.20 0.70 -0.35 0.85 -0.15 0.85 0.85 0 1 -0.30 1.25 -1.85 1.55 -2.05 0.30 -4.20 0.30 -6 -0.05z"/>
  <path d="M66.50 62.30 c0 -0.05 0.25 -0.85 0.55 -1.75 0.75 -2.15 1.95 -2.05 1.95 0.20 0 1.55 -0.15 1.75 -1.25 1.75 -0.70 0 -1.25 -0.10 -1.25 -0.20z"/>
  <path d="M67.25 58 c-0.15 -0.30 -0.15 -1 0 -1.55 0.25 -0.70 0.15 -0.95 -0.20 -0.75 -0.30 0.20 -0.45 0.10 -0.30 -0.30 0.15 -0.40 -0.60 -1.45 -1.60 -2.40 l-1.90 -1.75 1.75 2 1.75 2 -2.15 -2 c-1.15 -1.05 -2.10 -1.95 -2.10 -2 0 0 0.70 -0.10 1.60 -0.15 1.75 -0.15 3.90 1.50 3.90 3 0 0.50 0.25 0.90 0.50 0.90 0.30 0 0.50 0.80 0.50 1.75 0 1.70 -1 2.45 -1.75 1.25z"/>
  <path d="M59.75 48.40 l-2 -2.15 2 1.75 2 1.75 -2 -2.15 c-1.90 -2.05 -2.65 -2.65 -1.95 -1.55 0.20 0.35 0 0.45 -0.70 0.25 -0.65 -0.20 -1.10 -0.05 -1.30 0.45 -0.15 0.45 -0.90 0.75 -1.95 0.75 -1.55 0 -1.75 -0.20 -2.05 -1.55 -0.45 -2.35 -0.40 -2.45 1.20 -2.45 1.40 0 1.50 -0.10 1 -1 -0.45 -0.85 -0.40 -1 0.65 -1 0.75 0 2.30 1.05 4.30 2.90 2.70 2.50 3.05 3.05 2.95 4.50 -0.05 0.85 -0.15 1.60 -0.15 1.60 -0.05 0 -0.95 -0.95 -2 -2.10z"/>
  <path d="M46.90 45 c1.90 -1.75 3.60 -2 3.60 -0.50 0 0.55 -0.35 1 -0.75 1 -0.40 0 -0.75 0.25 -0.75 0.50 0 0.30 -0.85 0.50 -1.85 0.50 l-1.90 -0.05 1.65 -1.45z"/>
  <path d="M46 22.65 c0 -4.10 2.75 -6.35 7.35 -6 3.55 0.25 5.15 1.40 5.15 3.60 0 0.95 -0.10 1.75 -0.20 1.75 -0.10 0 -1 -0.80 -1.95 -1.75 -3.05 -3.05 -7.15 -1.95 -8.40 2.30 -0.80 2.55 -1.95 2.60 -1.95 0.10z"/>
 </g>
 <g fill="#138fde">
  <path d="M42.65 67.65 l-4.15 -0.20 0 -1.70 c0 -1.75 0 -1.75 2.30 -1.75 3.35 0 7.15 -1.35 7.50 -2.70 0.15 -0.60 0.75 -1.30 1.35 -1.55 0.60 -0.30 1.15 -1 1.25 -1.60 0.10 -0.65 0.50 -1.15 0.85 -1.15 0.40 0 0.90 -0.30 1.10 -0.70 0.20 -0.35 0.70 -0.75 1 -0.85 0.45 -0.15 0.15 -1.10 -0.85 -3.15 -2.10 -4.15 -1.80 -8.45 0.60 -8.60 0.70 -0.05 0.75 0.15 0.35 1.20 -0.40 1.10 -0.40 1.15 0.30 0.60 1.15 -0.95 2.45 -0.25 1.75 0.95 -0.60 1.20 -0.65 1.70 -0.05 1.35 0.25 -0.20 0.60 0.35 0.80 1.15 0.15 0.80 0.65 1.75 1.05 2.05 0.35 0.35 0.60 0.80 0.45 1 -0.15 0.25 -0.05 0.55 0.25 0.75 0.25 0.15 0.50 0.65 0.50 1.10 0 1.15 4.05 7.15 4.80 7.15 1 0 1.30 0.90 0.70 2 -0.85 1.60 0.30 1.20 1.60 -0.55 0.85 -1.10 1.15 -2.30 1.25 -4.25 0 -1.50 -0.10 -2.60 -0.30 -2.50 -0.20 0.15 -0.35 -0.20 -0.35 -0.75 0 -1.35 1.60 -1.20 2 0.20 0.50 1.95 0.30 6.35 -0.40 8 -0.90 2.15 -2.65 3.65 -5.05 4.30 -1.85 0.50 -10.75 0.60 -20.60 0.20z m17.85 -2.10 c0 -0.45 -8 -0.20 -8.45 0.25 -0.10 0.10 1.75 0.20 4.10 0.20 2.40 0 4.35 -0.20 4.35 -0.45z"/>
  <path d="M24 67.15 c0 -0.25 0.80 -0.90 1.75 -1.55 l1.75 -1.10 0 1.50 c0 1.40 -0.15 1.50 -1.75 1.50 -0.95 0 -1.75 -0.15 -1.75 -0.35z"/>
  <path d="M64.85 52.60 c-0.25 -0.35 -0.60 -0.50 -0.80 -0.40 -0.20 0.15 -1.15 -0.50 -2.05 -1.45 -0.95 -0.95 -1.50 -1.75 -1.30 -1.75 0.25 0 0.15 -0.35 -0.20 -0.75 -0.50 -0.65 -0.45 -0.75 0.60 -0.75 1.70 0 4.55 3 4.30 4.55 -0.10 0.85 -0.30 1 -0.55 0.55z m-0.85 -0.75 c0 -0.10 -0.75 -0.80 -1.60 -1.65 l-1.65 -1.45 1.45 1.65 c1.40 1.50 1.80 1.85 1.80 1.45z"/>
  <path d="M57.55 45.75 c-1.10 -0.60 -2.40 -1.85 -4 -3.90 -0.60 -0.75 -0.50 -0.85 0.90 -0.85 1.30 0 1.55 0.20 1.55 1.15 0 0.75 0.45 1.30 1.50 1.75 0.90 0.40 1.50 1.05 1.50 1.65 0 0.50 -0.05 0.95 -0.10 0.90 -0.10 -0.05 -0.70 -0.35 -1.35 -0.70z"/>
  <path d="M46.80 45.10 c0.50 -0.50 1.35 -1.05 1.85 -1.25 0.65 -0.25 0.85 -0.05 0.85 0.90 0 1.10 -0.20 1.25 -1.85 1.25 -1.80 0 -1.80 0 -0.85 -0.90z"/>
  <path d="M13.50 21.15 c0.05 -2.90 0.80 -5.65 2 -6.85 1.95 -2.10 4.20 -2.40 16.05 -2 l10.95 0.35 0 1.60 0 1.55 -7.35 0.60 c-10.20 0.85 -11.65 1.10 -11.65 1.90 0 0.40 -0.50 0.70 -1.10 0.70 -1.90 0 -4.90 1.65 -5.20 2.85 -0.25 0.90 -0.65 1.15 -2 1.15 -1.65 0 -1.70 -0.05 -1.70 -1.85z"/>
 </g>
 <g fill="#665bb5">
  <path d="M67.50 55.95 c0 -0.80 -9.50 -10.45 -10.25 -10.45 -0.35 0 -1.55 -1.10 -2.65 -2.45 -2.55 -3 -2.85 -5.35 -0.85 -5.85 0.70 -0.15 1.25 -0.45 1.25 -0.65 0 -0.50 2.85 -1.45 5.50 -1.85 1.25 -0.15 2.75 -0.65 3.35 -1 1.65 -1.05 4 -0.90 4.65 0.25 0.30 0.60 0.50 5.30 0.50 11.75 0 9.25 -0.10 10.80 -0.75 10.80 -0.40 0 -0.75 -0.25 -0.75 -0.55z"/>
  <path d="M13.10 52.25 c0.10 -1.80 0.45 -3.50 0.75 -3.80 0.30 -0.30 1.60 -0.70 2.85 -0.80 l2.30 -0.30 0 1.75 c0 1.40 -0.45 2.10 -2.50 4.05 -1.35 1.30 -2.75 2.35 -3.05 2.35 -0.40 0 -0.50 -1.05 -0.35 -3.25z"/>
 </g>
 <g fill="#1382d4">
  <path d="M19 67.50 c0 -0.95 0.20 -1.10 1.40 -0.85 3.65 0.75 4.70 0 15.80 -11.05 5.80 -5.75 11.10 -10.85 11.80 -11.30 1.30 -0.85 4.30 -1.05 5.45 -0.35 0.55 0.35 0.55 0.75 0.10 2.15 -0.50 1.55 -0.40 2.05 1.40 5.65 1.05 2.20 1.80 4.25 1.65 4.50 -0.35 0.50 -0.40 0.80 -0.55 1.75 -0.10 0.85 -1.05 0.55 -1.05 -0.35 -0.05 -0.85 -0.05 -0.85 -0.55 0 -0.25 0.45 -0.80 0.85 -1.20 0.85 -0.35 0 -0.75 0.50 -0.85 1.15 -0.10 0.60 -0.65 1.30 -1.25 1.60 -0.60 0.25 -1.25 1.05 -1.40 1.80 -0.15 0.70 -0.55 1.30 -0.90 1.35 -0.35 0 -1.15 0.20 -1.85 0.40 -0.70 0.15 -2.60 0.50 -4.25 0.70 l-3 0.35 4.25 0.15 c2.35 0.05 4.50 0.15 4.75 0.25 0.30 0.05 0.90 0.15 1.40 0.15 0.45 0.05 0.85 0.45 0.85 0.90 0 0.70 -1.15 0.80 -10.85 0.60 -7.95 -0.10 -10.85 -0.30 -11 -0.75 -0.15 -0.45 -0.50 -0.45 -1.40 0.15 -0.65 0.45 -2.85 0.90 -4.95 1.05 -3.70 0.30 -3.80 0.25 -3.80 -0.85z"/>
  <path d="M59 67.30 c0 -0.45 0.95 -0.95 2.50 -1.30 2.70 -0.65 5.20 -2.95 5.80 -5.25 0.45 -1.90 1.70 -1.60 1.70 0.45 0 2.15 -1.80 4.80 -4 5.90 -2.15 1.10 -6 1.20 -6 0.20z"/>
  <path d="M57.20 45.50 c-0.60 -0.25 -1.55 -1.10 -2.15 -1.95 -1.70 -2.35 -0.05 -2 1.90 0.45 0.85 1.10 1.55 2 1.45 1.95 -0.10 0 -0.65 -0.20 -1.20 -0.45z"/>
  <path d="M48.85 36.95 c-1.35 -1.55 -3 -3.10 -3.65 -3.45 -1.70 -0.95 -1.50 -1.50 0.55 -1.50 1.55 0 1.75 0.15 1.75 1.25 0 1 0.25 1.25 1.15 1.25 1.75 0 2.95 1.60 2.75 3.55 l-0.15 1.70 -2.40 -2.80z"/>
  <path d="M35 33.05 c0 -1.40 0.15 -1.55 1.50 -1.55 0.85 0 1.50 -0.20 1.50 -0.50 0 -0.25 0.80 -0.50 1.75 -0.50 2.45 0 2.35 1.35 -0.10 1.80 -1.05 0.20 -2.50 0.75 -3.25 1.30 l-1.40 0.95 0 -1.50z"/>
  <path d="M13.25 25.20 c-0.45 -4.80 -0.05 -8.55 1.15 -10.20 1.25 -1.70 3.95 -3 6.25 -3 2.65 0 2.40 1.20 -0.40 2 -2.35 0.65 -4.75 2.90 -4.75 4.40 0 0.45 -0.15 1.40 -0.25 2.10 -0.25 1.20 -0.25 1.20 0.30 -0.10 0.30 -0.75 1 -1.50 1.60 -1.70 0.60 -0.15 1.60 -0.75 2.20 -1.35 0.95 -0.80 1.25 -0.90 1.90 -0.35 0.60 0.50 0.75 0.50 0.75 -0.15 0 -0.80 1.05 -1 12.75 -2.10 l6.50 -0.65 -6.75 -0.10 c-3.70 -0.05 -7.10 -0.15 -7.50 -0.20 -0.40 -0.10 -1.15 -0.15 -1.60 -0.20 -0.50 -0.05 -0.90 -0.45 -0.90 -0.85 0 -0.65 1.85 -0.75 13.65 -0.75 7.55 0 16.10 0.15 19.05 0.35 l5.35 0.30 -0.15 1.80 -0.15 1.80 -3.35 0.15 c-3.20 0.15 -3.40 0.20 -3.40 1.35 0 1.10 -0.10 1.15 -1.50 0.65 -1.20 -0.40 -1.90 -0.30 -3.50 0.50 -1.55 0.75 -2 0.80 -2 0.30 0 -0.80 -1.80 -0.95 -2.25 -0.25 -0.15 0.25 -1.90 0.95 -3.90 1.55 -1.95 0.60 -4.10 1.25 -4.75 1.55 -0.65 0.25 -2 0.45 -3.05 0.45 -1.25 0 -2.05 0.25 -2.25 0.75 -0.20 0.55 -1.05 0.75 -3.25 0.75 -2.25 0 -3.60 0.30 -5.35 1.25 -1.30 0.70 -3.20 1.40 -4.25 1.55 -1.25 0.20 -1.95 0.60 -2.10 1.25 -0.20 0.70 -0.70 0.95 -2 0.95 l-1.75 0 -0.35 -3.80z"/>
 </g>
 <g fill="#4960af">
  <path d="M1.75 80 c-0.90 -1 -0.85 -1 0.90 -1 1.50 0 1.85 0.20 1.85 1 0 0.65 -0.35 1 -0.90 1 -0.55 0 -1.35 -0.45 -1.85 -1z"/>
  <path d="M77.50 80 c0 -0.80 0.35 -1 1.85 -1 1.75 0 1.80 0 0.90 1 -0.50 0.55 -1.30 1 -1.85 1 -0.55 0 -0.90 -0.35 -0.90 -1z"/>
  <path d="M67.40 56.15 c-0.30 -1.40 0.10 -2.65 0.90 -2.65 0.45 0 0.70 0.55 0.70 1.75 0 1.85 -1.20 2.50 -1.60 0.90z"/>
  <path d="M13 49.05 c0 -4.10 0.15 -8.15 0.30 -9 0.30 -1.45 0.45 -1.55 2.40 -1.55 1.15 0 2.35 -0.25 2.60 -0.50 0.55 -0.55 7.45 -2 9.50 -2 1.10 0 1.20 0.20 1.20 2.25 0 1.60 -0.20 2.25 -0.70 2.25 -0.35 0 -1.05 0.75 -1.45 1.65 -0.45 0.85 -3.05 3.85 -5.85 6.60 -4.15 4.10 -5 4.75 -4.80 3.65 0.10 -0.70 0.45 -1.75 0.75 -2.30 0.45 -0.85 0.40 -0.95 -0.50 -0.75 -1.25 0.35 -1.55 1.10 -1.70 3.85 -0.15 3.15 -0.20 3.30 -1 3.30 -0.65 0 -0.75 -1.15 -0.75 -7.45z"/>
  <path d="M55.30 43.45 c-2.10 -1.95 -3.80 -3.80 -3.80 -4.15 0 -0.75 -3.85 -4.80 -4.55 -4.80 -0.30 0 -0.45 -1 -0.35 -2.35 0.15 -2.10 0.30 -2.40 1.35 -2.55 l1.15 -0.20 -1.05 -0.70 c-0.70 -0.55 -1.05 -1.30 -1.05 -2.50 0 -0.95 0.10 -1.70 0.25 -1.70 0.15 0 0.90 0.75 1.70 1.60 1.25 1.40 1.80 1.65 3.70 1.65 2.65 0 4.60 -1.45 5.10 -3.80 0.45 -2.10 1.75 -1.90 1.75 0.25 0 0.95 -0.30 1.85 -0.60 2 -0.35 0.15 0.15 0.15 1.10 0 0.95 -0.15 2.60 -0.70 3.65 -1.25 2.30 -1.15 4.65 -1.25 5.05 -0.15 0.15 0.45 0.30 3.45 0.30 6.75 0 4.50 -0.15 5.95 -0.65 5.95 -0.35 0 -0.90 -0.70 -1.20 -1.55 -0.55 -1.45 -0.65 -1.50 -1.75 -0.75 -0.65 0.40 -2.15 0.85 -3.40 1.05 -2.65 0.35 -5.50 1.30 -5.50 1.80 0 0.20 -0.55 0.50 -1.25 0.65 l-1.25 0.30 1 2.05 c0.60 1.10 1.85 2.90 2.85 3.95 2.70 3.05 1.65 2.40 -2.55 -1.55z"/>
 </g>
 <g fill="#1571c2">
  <path d="M17.15 67.95 c-0.80 -0.40 -1.15 -1.05 -1.15 -2.05 0 -1.20 -0.20 -1.40 -1.45 -1.40 -1.55 0 -2.05 -0.90 -2.05 -3.60 0 -1.90 1.35 -1.80 1.75 0.10 0.80 3.70 5.05 6.30 9.20 5.70 2.20 -0.30 2.80 -0.80 13.10 -11.10 5.95 -5.90 11.40 -11.05 12.15 -11.45 1.05 -0.55 1.85 -0.60 3.20 -0.25 l1.85 0.45 -1.85 0.75 c-1 0.45 -1.95 1.30 -2.15 1.95 -0.45 1.30 -2.20 3.35 -7.20 8.15 -2 1.95 -4.95 4.85 -6.50 6.50 -1.55 1.60 -3.45 3.25 -4.30 3.60 -1.45 0.65 -1.45 0.65 -0.25 0.70 2.05 0.05 3.50 0.55 3.50 1.30 0 0.50 -0.75 0.70 -2.85 0.70 -1.60 0 -5.35 0.10 -8.40 0.25 -3.65 0.15 -5.90 0.05 -6.60 -0.30z"/>
  <path d="M49 67.55 c0 -1 0.25 -1.05 6.40 -1.05 7.25 0 9.05 -0.55 10.95 -3.45 0.85 -1.30 1.15 -2.40 1.15 -4.60 0 -2.60 0.10 -2.95 1 -2.95 0.90 0 1 0.35 1 2.95 0 2.95 -0.75 6.05 -1.50 6.05 -0.20 0 -0.50 0.45 -0.65 0.95 -0.55 2.10 -3.10 2.75 -10.95 2.95 -7.25 0.20 -7.40 0.15 -7.40 -0.85z"/>
  <path d="M12.50 56.75 c0 -1.40 0.20 -1.75 1 -1.75 1.05 0 1.20 0.50 0.70 2.40 -0.50 1.80 -1.70 1.35 -1.70 -0.65z"/>
  <path d="M22 45.75 c0 -2.05 2.35 -4.25 4.50 -4.25 l1.75 0 -2.25 2.15 c-3.80 3.60 -4 3.70 -4 2.10z"/>
  <path d="M52.95 41.15 c-4.10 -4.30 -4.15 -4.40 -2.80 -4.55 0.90 -0.10 1.85 0.20 2.45 0.75 1 0.90 3.55 5.45 3.30 5.85 -0.10 0.10 0.30 0.65 0.80 1.25 0.55 0.60 0.85 1.05 0.70 1.05 -0.15 0 -2.15 -1.95 -4.45 -4.35z m3.05 2.20 c0 -0.10 -0.75 -0.80 -1.60 -1.65 l-1.65 -1.45 1.45 1.65 c1.40 1.50 1.80 1.85 1.80 1.45z"/>
  <path d="M31.50 36.50 c0 -2.20 2.10 -4.50 4.10 -4.50 0.90 0 1.40 -0.25 1.40 -0.75 0 -0.60 0.75 -0.75 3.75 -0.75 4.65 0 6.25 0.65 6.25 2.60 0 1.40 -0.05 1.40 -1.20 0.65 -1.90 -1.25 -4.40 -1.80 -6.55 -1.45 -1.45 0.25 -2.70 1 -4.85 3.10 l-2.90 2.75 0 -1.65z"/>
  <path d="M13.30 34.45 c-0.15 -0.85 -0.30 -3.90 -0.30 -6.75 0 -4.20 0.15 -5.20 0.75 -5.20 0.45 0 0.80 0.70 1 1.90 0.55 3.25 0.60 3.45 1 2.25 0.25 -0.80 0.75 -1.15 1.55 -1.15 0.65 0 1.20 -0.25 1.20 -0.55 0 -0.25 0.40 -0.45 0.90 -0.40 0.45 0.10 1.85 -0.35 3 -0.95 1.35 -0.65 3.30 -1.10 5.20 -1.15 1.95 -0.10 3.10 -0.35 3.25 -0.80 0.15 -0.40 1.05 -0.65 2.15 -0.65 2.35 0 3.60 -0.45 3.20 -1.10 -0.20 -0.25 0.20 -0.45 0.85 -0.40 1.85 0.15 2.45 0.05 2.35 -0.45 -0.10 -0.25 0.10 -0.45 0.35 -0.45 0.30 0 0.45 0.15 0.40 0.40 -0.15 0.55 3.95 -0.95 4.90 -1.80 0.45 -0.40 0.95 -0.55 1.10 -0.40 0.20 0.20 0.65 0.05 1.05 -0.25 0.45 -0.35 0.85 -0.40 1 -0.10 0.15 0.25 0.75 0.35 1.30 0.20 0.55 -0.15 0.90 -0.45 0.75 -0.65 -0.25 -0.45 3.55 -0.95 7.65 -1.10 3.75 -0.10 3.80 -0.90 0 -0.90 -3.85 0 -5.40 -0.40 -5.40 -1.30 0 -0.55 1.05 -0.70 4.95 -0.70 5.50 0 7.15 0.40 9.20 2.40 1.15 1.10 1.35 1.70 1.35 3.85 l0 2.60 -2.80 0.30 c-1.55 0.15 -3.10 0.55 -3.35 0.80 -0.30 0.30 -0.95 0.55 -1.45 0.55 -0.50 0 -0.90 0.25 -0.90 0.50 0 1.25 -1.35 0.35 -1.95 -1.30 -1.80 -5.05 -8.95 -4.50 -9.85 0.75 -0.15 1 -0.40 2.15 -0.50 2.55 -0.35 1.30 -2.90 2.45 -6 2.80 -1.65 0.15 -3.70 0.75 -4.60 1.25 -0.90 0.55 -2.10 0.95 -2.60 0.95 -0.50 0 -1.05 0.20 -1.20 0.45 -0.20 0.25 -1.90 0.75 -3.80 1.05 -1.95 0.30 -3.50 0.80 -3.50 1.05 0 0.25 -0.65 0.45 -1.45 0.45 -0.80 0 -2.75 0.70 -4.30 1.50 -1.55 0.85 -3.60 1.50 -4.50 1.50 -1.40 0 -1.65 -0.20 -1.95 -1.55z"/>
  <path d="M13 18.80 c0 -1.25 0.30 -2.55 0.65 -2.90 0.35 -0.35 0.80 -1.05 1 -1.50 0.65 -1.80 3.35 -2.60 9.50 -2.80 5.70 -0.20 5.85 -0.15 5.85 0.85 0 1 -0.25 1.05 -4.70 1.05 -6.90 0 -9.35 1.25 -10.40 5.35 -0.70 2.90 -1.90 2.90 -1.90 -0.05z"/>
 </g>
 <g fill="#385eb0">
  <path d="M67.80 57.40 c-0.55 -2.10 -0.35 -2.90 0.70 -2.90 0.85 0 1 0.35 1 2 0 2.25 -1.15 2.85 -1.70 0.90z"/>
  <path d="M25 42.80 c0 -1.70 1 -3.80 1.85 -3.80 0.35 0 0.65 -0.35 0.65 -0.80 0 -0.75 -0.10 -0.75 -1.20 0 -0.90 0.60 -1.30 0.60 -1.45 0.15 -0.20 -0.45 -0.35 -0.45 -0.70 0 -0.25 0.30 -1.15 0.55 -2 0.55 -0.90 -0.05 -1.95 0.20 -2.35 0.55 -0.40 0.35 -1.60 0.65 -2.70 0.70 -1.85 0.05 -2.05 0.20 -2.35 1.70 -0.15 0.90 -0.60 1.65 -0.95 1.65 -0.50 0 -0.75 -1.75 -0.95 -6.85 -0.55 -10.65 -0.50 -11.15 0.60 -11.15 0.80 0 0.95 0.50 1.15 4.25 0.25 4.55 0.60 5.50 1.60 4.15 0.35 -0.50 0.75 -0.75 0.90 -0.60 0.15 0.15 1.10 -0.20 2.10 -0.80 1 -0.55 2.50 -1 3.30 -1 0.85 0 1.50 -0.20 1.50 -0.50 0 -0.25 0.40 -0.50 0.90 -0.50 0.50 0 1.10 -0.15 1.30 -0.35 0.20 -0.20 1.25 -0.40 2.35 -0.45 1.15 -0.05 2.30 -0.35 2.60 -0.65 0.30 -0.30 0.95 -0.55 1.40 -0.55 0.50 0 1.65 -0.40 2.55 -0.95 0.90 -0.50 2.95 -1.10 4.60 -1.25 2.60 -0.30 5.80 -1.55 5.80 -2.30 0 -0.15 0.50 -0.80 1.05 -1.50 0.55 -0.70 0.90 -0.95 0.70 -0.65 -0.55 1.10 1.55 5.05 3.20 5.85 1.90 1 2.70 1 4.55 0.05 2 -1.05 3.20 -3.40 2.85 -5.85 -0.25 -1.95 0 -2.35 1 -1.35 0.40 0.40 0.90 0.30 1.80 -0.30 0.70 -0.45 1.40 -0.80 1.55 -0.80 0.20 0.05 0.45 0.05 0.70 0 0.20 -0.05 1.10 0 2 0.05 1.40 0.05 1.60 -0.10 1.60 -1.15 0 -1.60 -2.90 -4.20 -5.25 -4.65 -1.25 -0.20 -1.75 -0.55 -1.75 -1.25 0 -0.75 0.35 -0.95 1.75 -0.95 1.20 0 1.75 0.25 1.75 0.70 0 0.50 0.65 0.80 1.85 0.90 1.50 0.10 2.10 0.50 3 1.85 1.05 1.50 1.15 2.30 1.15 7.35 0 4.55 -0.15 5.70 -0.70 5.70 -0.40 0 -0.85 -0.60 -1 -1.30 -0.35 -1.25 -0.40 -1.25 -1.50 -0.50 -0.65 0.40 -2.30 1.05 -3.65 1.35 -1.30 0.35 -3.35 1.15 -4.55 1.75 -1.30 0.70 -3.55 1.30 -5.65 1.50 -2.15 0.20 -3.65 0.60 -3.80 0.95 -0.10 0.40 0.80 1.60 2.05 2.75 1.90 1.75 2.30 2.45 2.30 3.95 l0 1.75 -3.60 -3.55 c-4.25 -4.15 -5.15 -4.65 -7.90 -4.65 -3 0 -5.30 1.45 -9.40 5.95 -2 2.20 -4.30 4.45 -5.10 5.05 l-1.50 1.05 0 -1.25z"/>
 </g>
 <g fill="#40519b">
  <path d="M12.50 48.50 c0 -8.65 0.05 -9 1 -9 0.95 0 1 0.35 1.10 6.40 0.15 9.65 -0.10 11.60 -1.35 11.60 -0.65 0 -0.75 -1.40 -0.75 -9z"/>
  <path d="M67.80 56.40 c-0.15 -0.65 -0.30 -8.20 -0.30 -16.75 0 -15.30 0 -15.65 1 -15.65 1 0 1 0.35 1 16.75 0 13.95 -0.10 16.75 -0.70 16.75 -0.35 0 -0.80 -0.50 -1 -1.10z"/>
  <path d="M16.20 52.15 c0.45 -2.20 1.45 -3.65 5.20 -7.25 0.85 -0.85 1.60 -1.90 1.60 -2.25 0 -0.35 0.30 -0.65 0.70 -0.65 0.40 0 1.15 -0.65 1.65 -1.50 0.45 -0.80 1.10 -1.50 1.45 -1.50 0.30 0 0.80 -0.55 1.10 -1.25 0.30 -0.70 0.90 -1.25 1.35 -1.25 0.40 0 0.75 -0.20 0.75 -0.45 0 -1.15 8.85 -5.55 11.15 -5.55 5.40 0 10.20 3.55 13.75 10.15 l1.55 2.90 -2.05 -1.85 c-1.15 -1 -3.60 -3.45 -5.55 -5.40 -1.90 -1.95 -3.65 -3.50 -3.90 -3.40 -0.25 0.05 -0.45 -0.10 -0.45 -0.35 0 -0.65 -4.25 -1.25 -5.35 -0.80 -0.50 0.25 -1.05 0.35 -1.25 0.35 -0.25 -0.05 -0.40 0.15 -0.40 0.45 0 0.25 -0.20 0.35 -0.50 0.20 -0.25 -0.15 -0.50 -0.05 -0.50 0.25 0 0.30 -0.20 0.45 -0.45 0.25 -0.30 -0.15 -1.25 0.70 -2.15 1.85 -2.85 3.70 -17.90 18.20 -17.70 17.05z"/>
  <path d="M49.60 29 c-0.45 -0.70 -1 -1.55 -1.25 -1.85 -0.25 -0.35 0.60 -0.20 1.85 0.40 2.65 1.15 4.55 0.85 6.65 -1.15 1.25 -1.15 1.55 -0.55 0.60 1.25 -1.10 2 -2.55 2.85 -4.90 2.70 -1.70 -0.10 -2.35 -0.35 -2.95 -1.35z"/>
 </g>
 <g fill="#1065ac">
  <path d="M17.85 68.30 c-2.45 -0.90 -4.25 -2.55 -5.15 -4.75 -0.70 -1.70 -0.90 -5.90 -0.40 -7.90 0.35 -1.20 1.70 -1.60 1.70 -0.50 0.25 7.50 0.20 7.25 1.75 8.85 2.70 2.85 5.40 3.60 9 2.55 1 -0.25 4.85 -3.80 11 -10 8.75 -8.85 13.05 -12.55 14.50 -12.55 0.70 0 -19.25 20.20 -20.80 21 -0.60 0.35 -0.85 0.80 -0.60 1.05 0.20 0.20 5.50 0.45 11.65 0.45 11.95 0.05 13.50 0.20 13.50 1.30 0 0.60 -2.35 0.70 -13.85 0.70 -7.65 0 -15.35 0.10 -17.15 0.25 -2.15 0.20 -3.90 0.05 -5.15 -0.45z"/>
  <path d="M59.50 67.80 c0 -0.40 0.95 -0.90 2.30 -1.25 2.80 -0.70 4.95 -2.80 5.75 -5.60 0.75 -2.50 1.95 -2.60 1.95 -0.20 0 2.40 -1.25 4.75 -2.50 4.75 -0.65 0 -1 0.35 -1 0.90 0 1.20 -2 2.10 -4.50 2.10 -1.35 0 -2 -0.20 -2 -0.70z"/>
  <path d="M13 33 c0 -1.10 0.25 -2 0.50 -2 0.30 0 0.50 0.45 0.50 1.05 0 0.65 0.20 0.90 0.60 0.65 0.40 -0.25 0.45 -0.10 0.25 0.50 -0.20 0.50 -0.35 1.10 -0.35 1.35 0 0.25 -0.35 0.45 -0.75 0.45 -0.55 0 -0.75 -0.55 -0.75 -2z"/>
  <path d="M12.50 23 c0 -6.10 0.70 -8.50 2.50 -8.50 0.65 0 1 -0.35 1 -0.90 0 -1.20 2 -2.10 4.50 -2.10 2.50 0 2.75 1.25 0.40 1.75 -4.75 1.05 -6.40 3.35 -6.40 9.05 0 4.60 -0.35 6.20 -1.30 6.20 -0.55 0 -0.70 -1.15 -0.70 -5.50z"/>
  <path d="M45.30 25.10 c-0.10 -0.20 0.30 -1.20 0.90 -2.25 l1.15 -1.85 0 1.50 c0 1 -0.15 1.30 -0.45 0.90 -0.30 -0.50 -0.40 -0.40 -0.40 0.25 0 0.45 -0.25 0.85 -0.55 0.85 -0.25 0 -0.35 0.25 -0.20 0.50 0.15 0.30 0.20 0.50 0.05 0.50 -0.15 0 -0.35 -0.15 -0.50 -0.40z"/>
  <path d="M67.50 19.30 c0 -0.75 -0.65 -1.90 -1.60 -2.85 -0.95 -0.95 -1.10 -1.20 -0.40 -0.65 l1.25 0.95 -0.95 -1.10 c-0.50 -0.60 -1.05 -1.10 -1.25 -1.05 -0.60 0.10 -3.05 -0.70 -3.05 -1.05 0 -0.15 -7.70 -0.25 -17.10 -0.20 -9.45 0.10 -17.75 0 -18.55 -0.15 -0.75 -0.15 -1.35 -0.60 -1.35 -1 0 -0.60 2.85 -0.70 18.65 -0.70 10.70 0 19.35 0.20 20.40 0.50 2.70 0.75 4.40 2.85 4.80 5.90 0.20 1.80 0.10 2.60 -0.30 2.60 -0.30 0 -0.55 -0.55 -0.55 -1.20z"/>
 </g>
 <g fill="#1f4d8d">
  <path d="M1.50 79.55 c-1.60 -1.50 -2 -3.05 -0.75 -3.05 1.15 0 3.25 2.30 3.25 3.50 0 1.40 -0.75 1.25 -2.50 -0.45z"/>
  <path d="M78 79.85 c0 -1.35 1.60 -2.85 3 -2.85 1.40 0 1.25 0.85 -0.45 2.55 -1.75 1.75 -2.55 1.85 -2.55 0.30z"/>
  <path d="M15.85 67.70 c-2.40 -1.60 -3.85 -3.95 -3.85 -6.30 0 -2.55 1.15 -2.50 2 0.15 0.40 1.10 1.40 2.65 2.35 3.45 1.70 1.55 5.30 2.80 6.20 2.20 0.35 -0.20 9.40 -0.30 20.15 -0.25 l19.55 0.10 1.75 -1.15 c2.95 -2 4 -4.05 4 -7.95 0 -3.10 0.10 -3.45 1 -3.45 0.90 0 1 0.35 1 4 0 5.05 -1.05 7.40 -4.15 9.25 l-2.20 1.25 -22.95 -0.05 -22.95 0 -1.90 -1.25z"/>
  <path d="M12 56.75 c0 -1.90 0.15 -2.25 1 -2.25 1.05 0 1.30 1.15 0.70 3.40 -0.55 2.05 -1.70 1.30 -1.70 -1.15z"/>
  <path d="M12.30 39.90 c-0.15 -1.45 -0.30 -7.10 -0.30 -12.60 0 -9.35 0.05 -10.05 1.10 -11.90 0.65 -1.10 2.05 -2.55 3.20 -3.20 l2.05 -1.20 22.35 0 c17.75 0 22.65 0.15 23.95 0.70 2.10 0.85 4.15 3.30 4.90 5.75 0.75 2.50 0.15 9.55 -0.80 9.55 -0.85 0 -1.25 -1.60 -1.25 -5.50 0 -4.05 -1.15 -6.15 -4.15 -7.50 -1.95 -0.90 -3.45 -1 -22.90 -1 l-20.80 0 -1.70 1.15 c-0.90 0.60 -2.20 1.90 -2.85 2.85 -1.20 1.75 -1.20 1.75 -0.90 12.50 0.15 5.90 0.15 11.25 0 11.90 -0.55 2 -1.55 1.20 -1.90 -1.50z"/>
  <path d="M49.70 28.20 c-0.90 -0.70 -0.90 -0.75 0.30 -0.40 1.55 0.40 2.50 1.20 1.45 1.20 -0.40 0 -1.20 -0.35 -1.75 -0.80z"/>
  <path d="M0 3.15 c0.05 -2.20 3.50 -4.30 3.50 -2.15 0 0.55 -0.20 1 -0.45 1 -0.25 0 -0.55 0.45 -0.70 1 -0.35 1.25 -2.35 1.40 -2.35 0.15z"/>
  <path d="M79.60 2.90 c-0.80 -0.80 -0.75 -2.90 0.05 -2.90 0.95 0 2.35 1.65 2.35 2.65 0 1 -1.50 1.15 -2.40 0.25z"/>
 </g>
 <g fill="#173b74">
  <path d="M1.55 79.40 l-1.55 -1.60 0 -37.45 c0 -37.05 0 -37.45 1.05 -38.90 l1 -1.45 39.05 0 39 0 0.95 1.15 c0.90 1.05 0.90 2.65 0.95 38.90 l0 37.85 -1.60 1.55 -1.60 1.55 -37.85 0 -37.85 0 -1.55 -1.60z m62.75 -13.15 c3.95 -2.35 3.85 -1.65 3.80 -26.15 -0.10 -23.15 -0.05 -23 -2.70 -25.45 -0.60 -0.60 -1.80 -1.30 -2.55 -1.60 -0.90 -0.35 -8.70 -0.55 -22.20 -0.55 l-20.80 0 -2.05 1.20 c-1.15 0.65 -2.55 2.10 -3.15 3.15 -1.10 2 -1.10 2.05 -0.95 23.85 0.25 24.25 0.05 23.15 3.70 25.50 l1.85 1.20 21.45 0.05 21.40 0.10 2.20 -1.30z"/>
 </g>
</svg>